<svg width="32px" height="32px" viewBox="0 0 32 32" version="1.1" xmlns="http://www.w3.org/2000/svg" xmlns:xlink="http://www.w3.org/1999/xlink" xml:space="preserve" style="fill-rule:evenodd;clip-rule:evenodd;stroke-linejoin:round;stroke-miterlimit:1.41421;"><g id="Layer-1"><g><clipPath id="_clip1"><rect x="0" y="1.536" width="32" height="28.928"/></clipPath><g clip-path="url(#_clip1)"><path d="M2.274,28.189l13.781,-24.377l13.671,24.377l-27.452,0Z" style="fill:#1e1c1a;fill-rule:nonzero;"/><path d="M6.173,25.915l19.669,0l-9.794,-17.468l-9.875,17.468Zm23.552,4.549l-27.45,0c-0.81,0 -1.558,-0.428 -1.965,-1.126c-0.408,-0.7 -0.414,-1.562 -0.015,-2.266l13.78,-24.381c0.404,-0.714 1.161,-1.155 1.981,-1.155l0.003,0c0.822,0.002 1.58,0.444 1.981,1.162l13.67,24.379c0.395,0.706 0.386,1.566 -0.021,2.264c-0.41,0.697 -1.156,1.123 -1.964,1.123" style="fill:#1e1c1a;fill-rule:nonzero;"/><path d="M10.42,13.731l5.636,-9.92l4.418,7.969l-2.663,-2.78l-2.305,6.268l-1.598,-3.785l-3.488,2.248Z" style="fill:#66b9e7;fill-rule:nonzero;"/><path d="M14.499,19.404l-0.03,0l-1.748,0.944l-0.264,-1.037l2.196,-1.176l1.161,0l0,10.056l-1.315,0l0,-8.787Z" style="fill:#fff;fill-rule:nonzero;"/></g></g></g></svg>