<?xml version="1.0" encoding="UTF-8" standalone="no"?><!DOCTYPE svg PUBLIC "-//W3C//DTD SVG 1.1//EN" "http://www.w3.org/Graphics/SVG/1.1/DTD/svg11.dtd"><svg width="100%" height="100%" viewBox="0 0 32 32" version="1.1" xmlns="http://www.w3.org/2000/svg" xmlns:xlink="http://www.w3.org/1999/xlink" xml:space="preserve" style="fill-rule:evenodd;clip-rule:evenodd;stroke-linejoin:round;stroke-miterlimit:1.41421;"><g id="Layer-1"><g><clipPath id="_clip1"><rect x="0" y="1.535" width="32" height="28.929"/></clipPath><g clip-path="url(#_clip1)"><path d="M2.274,28.189l13.781,-24.377l13.671,24.377l-27.452,0Z" style="fill:#1e1c1a;fill-rule:nonzero;"/><path d="M6.173,25.915l19.669,0l-9.794,-17.468l-9.875,17.468Zm23.552,4.55l-27.45,0c-0.81,0 -1.558,-0.43 -1.965,-1.127c-0.408,-0.701 -0.414,-1.563 -0.015,-2.267l13.78,-24.381c0.404,-0.713 1.161,-1.155 1.981,-1.155l0.003,0c0.822,0.002 1.58,0.445 1.981,1.162l13.67,24.38c0.395,0.706 0.386,1.566 -0.021,2.264c-0.41,0.697 -1.156,1.124 -1.964,1.124" style="fill:#1e1c1a;fill-rule:nonzero;"/><path d="M10.42,13.73l5.636,-9.92l4.418,7.969l-2.663,-2.779l-2.305,6.268l-1.598,-3.786l-3.488,2.248Z" style="fill:#66b9e7;fill-rule:nonzero;"/><path d="M11.545,28.19l0,-0.835l1.067,-1.037c2.568,-2.444 3.744,-3.743 3.744,-5.259c0,-1.021 -0.48,-1.965 -1.98,-1.965c-0.913,0 -1.671,0.465 -2.135,0.851l-0.433,-0.959c0.68,-0.572 1.686,-1.021 2.845,-1.021c2.151,0 3.064,1.485 3.064,2.924c0,1.856 -1.346,3.357 -3.465,5.399l-0.789,0.742l0,0.031l4.501,0l0,1.129l-6.419,0Z" style="fill:#fff;fill-rule:nonzero;"/></g></g></g></svg>