<?xml version="1.0" encoding="UTF-8" standalone="no"?><!DOCTYPE svg PUBLIC "-//W3C//DTD SVG 1.1//EN" "http://www.w3.org/Graphics/SVG/1.1/DTD/svg11.dtd"><svg width="100%" height="100%" viewBox="0 0 32 32" version="1.1" xmlns="http://www.w3.org/2000/svg" xmlns:xlink="http://www.w3.org/1999/xlink" xml:space="preserve" style="fill-rule:evenodd;clip-rule:evenodd;stroke-linejoin:round;stroke-miterlimit:1.41421;"><g id="Layer-1"><g><clipPath id="_clip1"><rect x="0" y="1.535" width="32" height="28.929"/></clipPath><g clip-path="url(#_clip1)"><path d="M2.274,28.189l13.781,-24.377l13.671,24.377l-27.452,0Z" style="fill:#1e1c1a;fill-rule:nonzero;"/><path d="M6.173,25.915l19.669,0l-9.794,-17.468l-9.875,17.468Zm23.552,4.55l-27.45,0c-0.81,0 -1.558,-0.43 -1.965,-1.127c-0.408,-0.701 -0.414,-1.563 -0.015,-2.267l13.78,-24.381c0.404,-0.713 1.161,-1.155 1.981,-1.155l0.003,0c0.822,0.002 1.58,0.445 1.981,1.162l13.67,24.38c0.395,0.706 0.386,1.566 -0.021,2.265c-0.41,0.695 -1.156,1.123 -1.964,1.123" style="fill:#1e1c1a;fill-rule:nonzero;"/><path d="M10.42,13.73l5.636,-9.92l4.418,7.969l-2.663,-2.779l-2.305,6.268l-1.598,-3.785l-3.488,2.247Z" style="fill:#66b9e7;fill-rule:nonzero;"/><path d="M11.869,26.643c0.387,0.232 1.269,0.619 2.228,0.619c1.732,0 2.29,-1.098 2.274,-1.949c-0.016,-1.407 -1.284,-2.011 -2.599,-2.011l-0.757,0l0,-1.021l0.757,0c0.991,0 2.243,-0.511 2.243,-1.701c0,-0.805 -0.51,-1.517 -1.763,-1.517c-0.805,0 -1.578,0.356 -2.011,0.666l-0.372,-0.99c0.542,-0.387 1.563,-0.774 2.646,-0.774c1.98,0 2.876,1.176 2.876,2.398c0,1.051 -0.633,1.933 -1.856,2.382l0,0.031c1.238,0.232 2.243,1.16 2.243,2.568c0,1.609 -1.268,3.017 -3.666,3.017c-1.129,0 -2.119,-0.357 -2.614,-0.681l0.371,-1.037Z" style="fill:#fff;fill-rule:nonzero;"/></g></g></g></svg>