<svg width="32px" height="32px" viewBox="0 0 32 32" version="1.1" xmlns="http://www.w3.org/2000/svg" xmlns:xlink="http://www.w3.org/1999/xlink" xml:space="preserve" style="fill-rule:evenodd;clip-rule:evenodd;stroke-linejoin:round;stroke-miterlimit:1.41421;"><g id="Layer-1"><g><clipPath id="_clip1"><rect x="0" y="0" width="32" height="31.998"/></clipPath><g clip-path="url(#_clip1)"><rect x="0.13" y="0.18" width="7.699" height="7.712" style="fill:#1e1c1a;fill-rule:nonzero;"/><rect x="7.828" y="0.18" width="8.016" height="7.712" style="fill:#fff;fill-rule:nonzero;"/><path d="M15.844,0.18l0,7.712l8.016,0l0,-7.704l-0.008,-0.008l-8.008,0Z" style="fill:#1e1c1a;fill-rule:nonzero;"/><path d="M31.726,7.892c-0.165,-4.22 -3.625,-7.625 -7.866,-7.704l0,7.704l7.866,0Z" style="fill:#fff;fill-rule:nonzero;"/><rect x="0.13" y="7.892" width="7.699" height="8.016" style="fill:#fff;fill-rule:nonzero;"/><rect x="7.829" y="7.892" width="8.016" height="8.016" style="fill:#1e1c1a;fill-rule:nonzero;"/><rect x="15.844" y="7.892" width="8.016" height="8.016" style="fill:#fff;fill-rule:nonzero;"/><path d="M23.86,15.907l7.885,0l0,-7.696l-0.32,-0.32l-7.565,0l0,8.016Z" style="fill:#1e1c1a;fill-rule:nonzero;"/><path d="M7.829,15.907l-7.699,0l0,7.858c0.06,0.06 0.097,0.095 0.155,0.158l7.544,0l0,-8.016Z" style="fill:#1e1c1a;fill-rule:nonzero;"/><rect x="7.829" y="15.907" width="8.016" height="8.016" style="fill:#fff;fill-rule:nonzero;"/><rect x="15.844" y="15.907" width="8.016" height="8.016" style="fill:#1e1c1a;fill-rule:nonzero;"/><rect x="23.86" y="15.907" width="7.882" height="8.016" style="fill:#fff;fill-rule:nonzero;"/><path d="M0.138,23.923c0.084,4.23 3.481,7.68 7.691,7.853l0,-7.853l-7.691,0Z" style="fill:#fff;fill-rule:nonzero;"/><path d="M7.829,23.923l0,7.853l0.019,0.019l7.997,0l0,-7.872l-8.016,0Z" style="fill:#1e1c1a;fill-rule:nonzero;"/><rect x="15.844" y="23.923" width="8.016" height="7.872" style="fill:#fff;fill-rule:nonzero;"/><rect x="23.86" y="23.923" width="7.882" height="7.872" style="fill:#1e1c1a;fill-rule:nonzero;"/><path d="M0.386,0.386l0,23.391c0,4.32 3.516,7.835 7.838,7.835l23.391,0l0,-23.39c0,-4.321 -3.516,-7.836 -7.836,-7.836l-23.393,0Zm31.421,31.612l-23.583,0c-4.534,0 -8.224,-3.688 -8.224,-8.221l0,-23.584c0,-0.106 0.087,-0.193 0.193,-0.193l23.586,0c4.533,0 8.221,3.688 8.221,8.222l0,23.583c0,0.106 -0.086,0.193 -0.193,0.193" style="fill:#1e1c1a;fill-rule:nonzero;"/></g></g></g></svg>