<svg width="32px" height="32px" viewBox="0 0 32 32" version="1.1" xmlns="http://www.w3.org/2000/svg" xmlns:xlink="http://www.w3.org/1999/xlink" xml:space="preserve" style="fill-rule:evenodd;clip-rule:evenodd;stroke-linejoin:round;stroke-miterlimit:1.41421;"><g id="Layer-1"><path d="M23.81,0.125c4.436,0 8.065,3.627 8.065,8.063l0,15.622c0,4.435 -3.629,8.062 -8.065,8.062l-15.622,0c-4.435,0 -8.063,-3.627 -8.063,-8.062l0,-23.685l23.685,0Z" style="fill:#62c4e0;fill-rule:nonzero;"/><path d="M0.249,0.249l0,23.561c0,4.377 3.562,7.938 7.939,7.938l15.622,0c4.378,0 7.941,-3.561 7.941,-7.938l0,-15.623c0,-4.376 -3.563,-7.938 -7.941,-7.938l-23.561,0Zm23.561,31.748l-15.622,0c-4.515,0 -8.188,-3.673 -8.188,-8.187l0,-23.685c0,-0.069 0.056,-0.125 0.124,-0.125l23.686,0c4.515,0 8.19,3.673 8.19,8.187l0,15.623c0,4.514 -3.675,8.187 -8.19,8.187" style="fill:#1e1c1a;fill-rule:nonzero;"/><path d="M14.996,4.179c0,-0.29 -0.239,-0.528 -0.528,-0.528c-0.29,0 -0.53,0.238 -0.53,0.528l0,5.124l-1.054,0l0,-5.124c0,-0.29 -0.24,-0.528 -0.529,-0.528c-0.29,0 -0.529,0.238 -0.529,0.528l0,5.124l-1.055,0l0,-5.124c0,-0.29 -0.236,-0.528 -0.529,-0.528c-0.289,0 -0.528,0.238 -0.528,0.528l0,5.124l-1.055,0l0,-5.124c0,-0.29 -0.24,-0.528 -0.529,-0.528c-0.289,0 -0.529,0.238 -0.529,0.528l0,7.427c0,0.899 0.736,1.634 1.634,1.634l0.308,0l0,14.047c0,0.898 0.734,1.631 1.633,1.631l0.237,0c0.9,0 1.634,-0.733 1.634,-1.631l0,-14.047l0.307,0c0.898,0 1.632,-0.735 1.632,-1.634l0,-1.064c0.005,-0.028 0.01,-0.057 0.01,-0.086l0,-6.277Z" style="fill:#fff;fill-rule:nonzero;"/><path d="M22.805,5.583c-0.082,-1.055 -0.96,-1.886 -2.036,-1.886c-1.132,0 -2.047,0.915 -2.047,2.047c0,0.066 0.003,0.132 0.011,0.194l0,12.455l1.249,0l0,8.863c0,0.781 0.636,1.421 1.418,1.421c0.784,0 1.424,-0.64 1.424,-1.421l0,-21.446c0,-0.077 -0.008,-0.153 -0.019,-0.227" style="fill:#fff;fill-rule:nonzero;"/></g></svg>