<svg viewBox="0 0 20 40" height="40px" width="20px" xmlns="http://www.w3.org/2000/svg" fill-rule="evenodd" clip-rule="evenodd" stroke-linejoin="round" stroke-miterlimit="1.414"><g fill-rule="nonzero"><path d="M.5.5h19v27.294H6.017L.5 38.02V.5z" fill="#f7931e"/><path d="M0 0v40l6.315-11.706H20V0H0zm1 1h18v26.294H5.719l-.284.525L1 36.04V1z"/><path d="M6.425 21.004v-2.812l4.901-5.319c.495-.532.684-.874.684-1.444 0-.74-.418-1.254-1.216-1.254-.569 0-1.254.266-1.254 1.311H6.425c0-2.659 2.014-4.122 4.369-4.122 2.508 0 4.332 1.539 4.332 4.084 0 1.425-.59 2.185-1.672 3.325l-3.229 3.419h4.901v2.812H6.425z"/></g></svg>