<?xml version="1.0" encoding="UTF-8" standalone="no"?><!DOCTYPE svg PUBLIC "-//W3C//DTD SVG 1.1//EN" "http://www.w3.org/Graphics/SVG/1.1/DTD/svg11.dtd"><svg width="100%" height="100%" viewBox="0 0 32 32" version="1.1" xmlns="http://www.w3.org/2000/svg" xmlns:xlink="http://www.w3.org/1999/xlink" xml:space="preserve" style="fill-rule:evenodd;clip-rule:evenodd;stroke-linejoin:round;stroke-miterlimit:1.41421;"><g id="Layer-1"><g><clipPath id="_clip1"><rect x="0" y="2.794" width="32" height="26.412"/></clipPath><g clip-path="url(#_clip1)"><path d="M24.4,29.206l-19.706,0c-3.688,0 -5.609,-3.019 -4.264,-6.709l7.17,-19.703l19.705,0c3.689,0 5.61,3.019 4.267,6.709l-7.172,19.703Z" style="fill:#2a7f4b;fill-rule:nonzero;"/><path d="M7.892,18.551l5.094,-0.313c-0.187,0.81 -0.191,1.426 -0.015,1.85c0.291,0.686 0.935,1.028 1.938,1.028c0.747,0 1.387,-0.175 1.92,-0.525c0.53,-0.352 0.88,-0.757 1.049,-1.22c0.158,-0.438 0.109,-0.831 -0.15,-1.178c-0.257,-0.347 -1.033,-0.673 -2.322,-0.981c-2.109,-0.517 -3.495,-1.203 -4.163,-2.058c-0.675,-0.855 -0.77,-1.944 -0.288,-3.27c0.317,-0.871 0.869,-1.694 1.653,-2.466c0.787,-0.775 1.767,-1.385 2.94,-1.827c1.177,-0.443 2.645,-0.663 4.41,-0.663c2.162,0 3.667,0.402 4.512,1.207c0.842,0.805 1.053,2.086 0.629,3.842l-5.039,0.288c0.147,-0.761 0.073,-1.317 -0.22,-1.664c-0.295,-0.345 -0.81,-0.519 -1.551,-0.519c-0.609,0 -1.114,0.128 -1.516,0.386c-0.404,0.259 -0.672,0.573 -0.805,0.942c-0.097,0.269 -0.059,0.513 0.118,0.727c0.165,0.224 0.674,0.432 1.527,0.628c2.11,0.49 3.568,0.989 4.374,1.493c0.805,0.505 1.298,1.13 1.476,1.879c0.179,0.747 0.099,1.582 -0.238,2.507c-0.393,1.085 -1.058,2.088 -1.994,3.007c-0.933,0.915 -2.027,1.61 -3.278,2.083c-1.251,0.473 -2.698,0.71 -4.338,0.71c-2.881,0 -4.672,-0.554 -5.379,-1.663c-0.707,-1.109 -0.822,-2.518 -0.344,-4.23" style="fill:#fff;fill-rule:nonzero;"/></g></g></g></svg>