<svg viewBox="0 0 32 32" height="32px" width="32px" xmlns="http://www.w3.org/2000/svg" fill-rule="evenodd" clip-rule="evenodd" stroke-linejoin="round" stroke-miterlimit="1.414"><g fill-rule="nonzero"><path d="M16 31.484C7.462 31.484.517 24.538.517 16 .517 7.463 7.462.516 16 .516S31.483 7.463 31.483 16c0 8.538-6.945 15.484-15.483 15.484" fill="#ffd634"/><path d="M16 0C7.163 0 0 7.163 0 16s7.163 16 16 16 16-7.163 16-16S24.837 0 16 0m0 1.032c8.253 0 14.968 6.715 14.968 14.968S24.253 30.968 16 30.968 1.032 24.253 1.032 16 7.747 1.032 16 1.032"/><path d="M15.953 23.305c-2.071 0-3.762-.38-5.13-1.785l2.128-2.128c.703.703 1.938.95 3.021.95 1.31 0 1.937-.437 1.937-1.216 0-.323-.076-.589-.266-.798-.17-.17-.456-.303-.892-.361l-1.634-.227c-1.197-.171-2.109-.571-2.717-1.198-.627-.645-.93-1.557-.93-2.716 0-2.47 1.861-4.275 4.938-4.275 1.939 0 3.401.456 4.56 1.615l-2.09 2.09c-.855-.855-1.976-.798-2.565-.798-1.158 0-1.633.665-1.633 1.254a.89.89 0 0 0 .266.627c.171.171.455.342.931.399l1.634.228c1.215.171 2.089.551 2.659 1.12.721.703 1.007 1.71 1.007 2.964 0 2.755-2.374 4.255-5.224 4.255"/></g></svg>