<svg viewBox="0 0 32 32" height="32px" width="32px" xmlns="http://www.w3.org/2000/svg" fill-rule="evenodd" clip-rule="evenodd" stroke-linejoin="round" stroke-miterlimit="1.414"><g fill-rule="nonzero"><path d="M16 31.483C7.462 31.483.517 24.538.517 16S7.462.516 16 .516 31.483 7.462 31.483 16 24.538 31.483 16 31.483" fill="#ffd634"/><path d="M16 0C7.163 0 0 7.163 0 16s7.163 16 16 16 16-7.163 16-16S24.837 0 16 0m0 1.032c8.253 0 14.968 6.715 14.968 14.968S24.253 30.968 16 30.968 1.032 24.253 1.032 16 7.747 1.032 16 1.032"/><path d="M10.875 10h4v4h-4zM18.875 10h4v4h-4zM14.875 14h4v4h-4zM10.875 18h4v4h-4zM18.875 18h4v4h-4z"/></g></svg>